
<svg
  width="600"
  height="600"
  viewBox="0 0 600 600"
  xmlns="http://www.w3.org/2000/svg"
>
  <rect width="600" height="600" fill="#f4eee5" />

  <defs>
    <filter id="shadow" x="-20%" y="-20%" width="140%" height="140%">
      <feDropShadow dx="0" dy="8" stdDeviation="12" flood-opacity="0.25" />
    </filter>
    <clipPath id="face-clip">
      <path
        d="M 305 210
           C 305 188 290 170 272 170
           C 262 170 252 176 248 184
           C 244 191 243 198 244 206
           C 236 210 233 219 234 227
           C 236 237 243 244 252 247
           C 252 256 256 265 263 272
           C 270 279 281 284 291 285
           L 305 285 Z"
      />
    </clipPath>
  </defs>

  <g transform="translate(60,60)" filter="url(#shadow)">
    <rect x="0" y="0" width="480" height="420" rx="40" fill="#fdf8f1" />

    <g transform="translate(70,80)">
      <path
        d="M 40 120
           L 170 120
           C 190 120 205 105 205 85
           C 205 65 190 50 170 50
           L 40 50
           C 25 50 15 62 15 78
           L 15 92
           C 15 108 25 120 40 120 Z"
        fill="#e17124"
      />

      <path
        d="M 205 45
           L 280 105
           L 205 165
           Z"
        fill="#e17124"
      />

      <path
        d="M 195 55
           L 195 155
           L 205 165
           L 205 45 Z"
        fill="#c65713"
      />

      <path
        d="M 70 125
           L 105 125
           L 115 175
           L 80 175 Z"
        fill="#e17124"
      />

      <g clip-path="url(#face-clip)">
        <path
          d="M 205 45
             L 280 105
             L 205 165
             Z"
          fill="#2b2017"
        />
      </g>

      <g stroke-linecap="round" fill="none" stroke="#2b2017">
        <path
          d="M 305 80
             A 55 55 0 0 1 305 130"
          stroke-width="8"
        />
        <path
          d="M 330 65
             A 80 80 0 0 1 330 145"
          stroke-width="8.5"
        />
        <path
          d="M 355 50
             A 105 105 0 0 1 355 160"
          stroke-width="9"
        />
      </g>
    </g>

    <g transform="translate(40,330)">
      <text
        x="50%"
        y="0"
        text-anchor="middle"
        font-size="46"
        font-family="Georgia, 'Times New Roman', serif"
        fill="#2b2017"
      >
        Awaz-e-Janta
      </text>
      <text
        x="50%"
        y="40"
        text-anchor="middle"
        font-size="16"
        font-family="system-ui, -apple-system, BlinkMacSystemFont, 'Segoe UI', sans-serif"
        fill="#8a6b4b"
        letter-spacing="2"
      >
        VOICE OF THE PEOPLE
      </text>
    </g>
  </g>
</svg>
